<svg xmlns="http://www.w3.org/2000/svg" fill="none" stroke="currentColor" stroke-width="1.6" stroke-linecap="round" stroke-linejoin="round">
  <symbol id="calendar" viewBox="0 0 24 24"><rect x="3" y="5" width="18" height="16" rx="3"/><path d="M7 3v4m10-4v4M3 11h18m-13 5h3m3 0h2"/></symbol>
  <symbol id="people" viewBox="0 0 24 24"><circle cx="9" cy="8" r="3"/><path d="M3 21v-2a6 6 0 0 1 12 0v2m1-16a3 3 0 0 1 0 6m3 10v-2a6 6 0 0 0-2-4"/></symbol>
  <symbol id="clock" viewBox="0 0 24 24"><circle cx="12" cy="12" r="9"/><path d="M12 7v5l3 2"/></symbol>
  <symbol id="check" viewBox="0 0 24 24"><circle cx="12" cy="12" r="9"/><path d="m8 12 3 3 5-6"/></symbol>
  <symbol id="arrow" viewBox="0 0 24 24"><path d="M6 18 18 6M6 6h12v12"/></symbol>
  <symbol id="plus" viewBox="0 0 24 24"><path d="M12 5v14M5 12h14"/></symbol>
  <symbol id="history" viewBox="0 0 24 24"><path d="M3 10a9 9 0 1 1 1 7M3 4v6h6m3-3v5l3 2"/></symbol>
  <symbol id="spark" viewBox="0 0 24 24"><path d="m12 3 2.5 6.5L21 12l-6.5 2.5L12 21l-2.5-6.5L3 12l6.5-2.5Z"/></symbol>
  <symbol id="message" viewBox="0 0 24 24"><path d="M21 11a8 8 0 0 1-8 8H7l-4 3V7a4 4 0 0 1 4-4h10a4 4 0 0 1 4 4Z"/><path d="M7 8h10M7 12h6"/></symbol>
</svg>
